<svg xmlns="http://www.w3.org/2000/svg" viewBox="0 0 192 192">
  <!-- Background -->
  <rect width="192" height="192" rx="40" fill="#0d3d18"/>

  <!-- Eagle head silhouette (monochrome gold, facing right) -->
  <!-- Crown/top of head -->
  <path fill="#c9a227" d="
    M 96 22
    C 108 22, 120 28, 130 38
    C 138 46, 144 56, 146 68
    L 158 62
    L 164 72
    L 154 82
    C 156 90, 156 98, 152 106
    L 138 118
    C 124 126, 112 138, 108 154
    L 84 154
    C 76 140, 62 130, 50 124
    C 42 120, 36 112, 34 102
    C 30 88, 34 72, 42 60
    C 52 44, 72 22, 96 22 Z
  "/>

  <!-- Beak (pointing right) -->
  <path fill="#c9a227" d="
    M 146 68
    L 168 70
    L 162 82
    L 154 82
    L 164 72 Z
  "/>

  <!-- Eye socket cutout (dark) -->
  <circle cx="116" cy="68" r="14" fill="#0d3d18"/>

  <!-- Eye highlight (gold pupil) -->
  <circle cx="119" cy="65" r="6" fill="#c9a227"/>

  <!-- Nostril detail -->
  <ellipse cx="148" cy="76" rx="4" ry="3" fill="#0d3d18"/>
</svg>
